<svg width="95" height="115" viewBox="0 0 95 115" fill="none" xmlns="http://www.w3.org/2000/svg">
<path d="M27.7812 106V95.04H30.7412V99.14H30.8212L34.2212 95.04H37.5212V95.14L30.7412 102.66V106H27.7812ZM34.4812 106V102.38C34.4812 101.673 34.2745 101.167 33.8612 100.86C33.4612 100.54 32.8745 100.38 32.1012 100.38L33.8612 98.3C34.6612 98.3 35.3278 98.46 35.8612 98.78C36.3945 99.1 36.7945 99.5333 37.0612 100.08C37.3412 100.613 37.4812 101.227 37.4812 101.92V106H34.4812ZM50.5826 109.92C49.9826 109.92 49.3826 109.86 48.7826 109.74C48.1826 109.633 47.6292 109.467 47.1226 109.24V106.7C47.4692 106.913 47.9092 107.1 48.4426 107.26C48.9892 107.433 49.5626 107.52 50.1626 107.52C50.7359 107.52 51.2226 107.433 51.6226 107.26C52.0359 107.087 52.3492 106.82 52.5626 106.46C52.7892 106.1 52.9026 105.64 52.9026 105.08V104.5H52.7626C52.5092 104.873 52.1426 105.193 51.6626 105.46C51.1959 105.727 50.5892 105.86 49.8426 105.86C49.1759 105.86 48.5892 105.74 48.0826 105.5C47.5892 105.26 47.2026 104.887 46.9226 104.38C46.6426 103.86 46.5026 103.193 46.5026 102.38V99.02C46.5026 98.5533 46.4159 98.1867 46.2426 97.92C46.0826 97.64 45.8626 97.44 45.5826 97.32C45.3026 97.2 44.9826 97.14 44.6226 97.14C44.1159 97.14 43.6959 97.2533 43.3626 97.48C43.0292 97.6933 42.8492 98.02 42.8226 98.46L44.5626 99.3L44.3626 100.6C43.8692 100.613 43.4959 100.733 43.2426 100.96C42.9892 101.173 42.8626 101.553 42.8626 102.1V103.32C42.8626 103.613 42.9226 103.827 43.0426 103.96C43.1759 104.08 43.3826 104.14 43.6626 104.14C43.7826 104.14 43.9026 104.133 44.0226 104.12C44.1559 104.093 44.2692 104.06 44.3626 104.02L44.6426 105.8C44.3892 105.933 44.1026 106.033 43.7826 106.1C43.4626 106.167 43.1226 106.2 42.7626 106.2C42.1892 106.2 41.6892 106.107 41.2626 105.92C40.8492 105.733 40.5226 105.453 40.2826 105.08C40.0559 104.693 39.9426 104.213 39.9426 103.64V102.34C39.9426 101.553 40.1159 100.973 40.4626 100.6C40.8092 100.227 41.2892 99.9467 41.9026 99.76L41.9226 99.68L39.7426 98.9V98.38C39.7426 97.7 39.9292 97.0933 40.3026 96.56C40.6892 96.0133 41.2492 95.58 41.9826 95.26C42.7159 94.94 43.6092 94.78 44.6626 94.78C45.6492 94.78 46.4959 94.9333 47.2026 95.24C47.9226 95.5333 48.4759 95.98 48.8626 96.58C49.2492 97.1667 49.4426 97.9067 49.4426 98.8V101.48C49.4426 102.12 49.5826 102.58 49.8626 102.86C50.1426 103.14 50.4892 103.28 50.9026 103.28C51.2892 103.28 51.6226 103.173 51.9026 102.96C52.1826 102.733 52.4026 102.427 52.5626 102.04C52.7226 101.64 52.8026 101.173 52.8026 100.64V95.04H55.8026V104.66C55.8026 105.847 55.6026 106.827 55.2026 107.6C54.8159 108.387 54.2359 108.967 53.4626 109.34C52.6892 109.727 51.7292 109.92 50.5826 109.92ZM46.6526 93.52V92.26L48.6726 91.42H55.8126V93.52H46.6526ZM60.653 106L57.473 95.04H60.493L62.913 103.58H63.033C63.2464 103.58 63.4464 103.52 63.633 103.4C63.8197 103.28 63.9797 103.12 64.113 102.92C64.3797 102.547 64.5797 102.107 64.713 101.6C64.8464 101.08 64.913 100.567 64.913 100.06C64.913 99.1667 64.7397 98.48 64.393 98C64.0597 97.52 63.593 97.28 62.993 97.28C62.873 97.28 62.7597 97.2867 62.653 97.3C62.5597 97.3133 62.473 97.34 62.393 97.38L61.833 95.08C62.1397 94.9867 62.4264 94.9333 62.693 94.92C62.973 94.8933 63.1997 94.88 63.373 94.88C64.0797 94.88 64.693 94.9733 65.213 95.16C65.733 95.3467 66.1797 95.6267 66.553 96C67.0197 96.4533 67.3664 97.02 67.593 97.7C67.833 98.38 67.953 99.1467 67.953 100C67.953 101.08 67.7797 102.027 67.433 102.84C67.0997 103.64 66.693 104.273 66.213 104.74C65.813 105.127 65.3064 105.433 64.693 105.66C64.093 105.887 63.2664 106 62.213 106H60.653Z" fill="black"/>
<path d="M83.7069 80.1724C82.931 80.1724 82.4138 79.6552 82.4138 78.8793C82.4138 75.7759 81.1207 69.8276 71.9396 64.7845C70.2586 63.8793 68.1896 63.1035 65.862 62.1983C60.3017 60.1293 53.8362 57.6724 53.8362 52.5V47.3276C53.8362 46.5517 54.3534 46.0345 55.1293 46.0345C55.9051 46.0345 56.4224 46.5517 56.4224 47.3276V52.5C56.4224 55.8621 61.7241 57.931 66.7672 59.8707C69.0948 60.7759 71.2931 61.5517 73.1034 62.5862C83.4483 68.2759 85 75.2586 85 78.8793C85 79.6552 84.4827 80.1724 83.7069 80.1724Z" fill="black"/>
<path d="M11.2931 80.1724C10.5172 80.1724 10 79.6552 10 78.8793C10 75.2586 11.5517 68.1466 21.7672 62.5862C23.5776 61.5517 25.7759 60.7759 28.1034 59.8707C33.1466 57.931 38.4483 55.9914 38.4483 52.5V47.3276C38.4483 46.5517 38.9655 46.0345 39.7414 46.0345C40.5172 46.0345 41.0345 46.5517 41.0345 47.3276V52.5C41.0345 57.6724 34.6983 60.1293 29.0086 62.1983C26.8103 63.1035 24.6121 63.8793 22.931 64.7845C13.8793 69.8276 12.5862 75.7759 12.5862 78.8793C12.5862 79.6552 12.069 80.1724 11.2931 80.1724Z" fill="black"/>
<path d="M47.5 72.4138C39.7414 72.4138 32.6293 67.8879 29.5259 60.7759C29.2672 60.1293 29.5259 59.3535 30.1724 59.0948C30.819 58.8362 31.5948 59.0948 31.8534 59.7414C34.569 65.819 40.7759 69.8276 47.5 69.8276C54.2241 69.8276 60.431 65.819 63.1466 59.7414C63.4052 59.0948 64.181 58.8362 64.8276 59.0948C65.4741 59.3535 65.7328 60.1293 65.4741 60.7759C62.3707 67.8879 55.2586 72.4138 47.5 72.4138Z" fill="black"/>
<path d="M47.5 51.7242C40.6466 51.7242 34.0517 45.2587 32.1121 36.9828C30.3017 36.3363 28.1035 34.3966 28.1035 29.7414C28.1035 28.5776 28.2328 27.4138 28.6207 26.5087C29.0086 25.3449 30.0431 24.569 31.3362 24.4397C34.8276 24.0518 35.8621 21.3363 37.0259 17.3276C37.8017 14.4828 38.7069 11.5087 41.681 11.5087C43.2328 11.5087 44.5259 12.0259 45.431 12.4138C46.0776 11.8966 47.2414 11.5087 49.181 11.5087C52.1552 11.5087 54.2241 14.4828 56.5517 17.7156C58.75 20.819 61.0776 24.0518 63.9224 24.4397C65.0862 24.569 65.9914 25.3449 66.5086 26.3794C66.7673 27.4138 66.8966 28.4483 66.8966 29.7414C66.8966 34.3966 64.569 36.3363 62.8879 36.9828C60.9483 45.2587 54.3535 51.7242 47.5 51.7242ZM31.5948 27.1552C31.3362 27.1552 31.2069 27.2845 31.0776 27.5431C30.819 28.0604 30.6897 28.8363 30.6897 29.7414C30.6897 34.2673 33.2759 34.6552 33.4052 34.6552C33.9224 34.6552 34.4397 35.1725 34.569 35.6897C36.1207 43.9656 42.4569 49.138 47.5 49.138C52.5431 49.138 58.8793 43.9656 60.431 35.6897C60.5604 35.1725 60.9483 34.6552 61.5948 34.6552C61.8535 34.6552 64.3104 34.138 64.3104 29.7414C64.3104 28.5776 64.0517 27.9311 63.9224 27.5431C63.7931 27.2845 63.6638 27.1552 63.4052 27.1552C59.3966 26.638 56.681 22.7587 54.2241 19.3966C52.4138 16.9397 50.6035 14.3535 49.0517 14.3535C47.1121 14.3535 46.5948 15 46.5948 15C46.4655 15.2587 46.2069 15.5173 45.819 15.5173C45.431 15.6466 45.0431 15.5173 44.7845 15.2587C44.7845 15.2587 43.4914 14.2242 41.681 14.2242C40.7759 14.2242 40.2586 15.7759 39.4828 18.2328C38.4483 21.7242 37.0259 26.638 31.5948 27.1552Z" fill="black"/>
<path d="M68.319 51.7241C63.6638 51.7241 61.8535 50.819 61.7242 50.819C61.0776 50.5603 60.819 49.7845 61.207 49.1379C61.4656 48.4914 62.2414 48.2328 62.888 48.6207C63.5345 49.0086 64.4397 49.2672 68.319 49.2672C72.069 49.2672 73.3621 46.5517 73.3621 44.0948C73.3621 40.2155 71.4225 36.0776 70.5173 34.1379C69.7414 32.4569 69.8707 30.3879 70.0001 28.319C70.1294 26.3793 70.2587 24.4397 69.7414 22.5C69.0949 19.9138 67.4139 17.9741 65.8621 16.2931C65.0863 15.5172 64.4397 14.7414 63.9225 13.9655C63.4052 13.1897 62.888 12.1552 62.3707 10.9914C60.6897 7.11207 58.6207 2.58621 52.6725 2.58621C47.7587 2.58621 45.9483 4.65517 45.9483 4.65517C45.5604 5.17241 44.6552 5.30172 44.138 4.78448C43.6207 4.39655 43.4914 3.49138 43.8794 2.97414C44.0087 2.97414 46.3363 0 52.6725 0C60.3018 0 63.0173 5.81897 64.8276 9.69828C65.3449 10.7328 65.7328 11.6379 66.1207 12.1552C66.638 12.8017 67.2845 13.5776 67.9311 14.2241C69.6121 16.1638 71.6811 18.3621 72.457 21.5948C72.9742 23.9224 72.8449 26.25 72.7156 28.1897C72.5863 30.1293 72.457 31.681 72.9742 32.8448C74.0087 35.0431 75.9483 39.4397 75.9483 43.8362C75.9483 47.8448 73.6207 51.7241 68.319 51.7241Z" fill="black"/>
<path d="M26.681 51.7242C21.3793 51.7242 19.0517 47.8449 19.0517 43.9656C19.0517 39.569 21.1207 35.0432 22.0259 32.9742C22.5431 31.9397 22.4138 30.2587 22.2845 28.319C22.1552 26.2501 22.0259 24.0518 22.5431 21.7242C23.319 18.3621 25.2586 16.2932 27.069 14.3535C27.7155 13.5776 28.3621 12.9311 28.8793 12.2845C29.2672 11.638 29.7845 10.7328 30.1724 9.82764C31.7241 6.33626 34.0517 1.29315 41.0345 1.29315C43.2328 1.29315 45.431 2.58626 45.5603 2.84488C46.2069 3.23281 46.3362 4.00867 45.9483 4.65522C45.5603 5.30177 44.7845 5.43108 44.1379 5.04315C43.75 4.65522 42.1983 3.87936 41.0345 3.87936C35.7328 3.87936 34.0517 7.50005 32.5 10.8621C31.9828 11.8966 31.5948 12.9311 30.9483 13.7069C30.3017 14.4828 29.6552 15.2587 29.0086 16.0345C27.4569 17.8449 25.7759 19.6552 25.1293 22.2414C24.7414 24.1811 24.7414 26.2501 24.8707 28.0604C25 30.2587 25.1293 32.1983 24.3535 33.8794C23.5776 35.9483 21.6379 40.0863 21.6379 43.9656C21.6379 46.4225 22.931 49.138 26.681 49.138C30.6897 49.138 32.1121 48.4914 32.2414 48.4914C32.8879 48.2328 33.6638 48.4914 33.9224 49.138C34.181 49.7845 33.9224 50.5604 33.4052 50.819C33.1466 50.819 31.3362 51.7242 26.681 51.7242Z" fill="black"/>
</svg>
