<svg width="95" height="117" viewBox="0 0 95 117" fill="none" xmlns="http://www.w3.org/2000/svg">
<path d="M3.51359 96V85.04H6.47359V89.14H6.55359L9.95359 85.04H13.2536V85.14L6.47359 92.66V96H3.51359ZM10.2136 96V92.38C10.2136 91.6733 10.0069 91.1667 9.59359 90.86C9.19359 90.54 8.60693 90.38 7.83359 90.38L9.59359 88.3C10.3936 88.3 11.0603 88.46 11.5936 88.78C12.1269 89.1 12.5269 89.5333 12.7936 90.08C13.0736 90.6133 13.2136 91.2267 13.2136 91.92V96H10.2136ZM22.015 96V88.88C22.015 88.24 21.8417 87.78 21.495 87.5C21.1483 87.22 20.615 87.08 19.895 87.08C19.2017 87.08 18.5217 87.1867 17.855 87.4C17.2017 87.6 16.635 87.84 16.155 88.12V85.64C16.5417 85.4533 17.0883 85.2667 17.795 85.08C18.5017 84.88 19.3217 84.78 20.255 84.78C20.935 84.78 21.555 84.8533 22.115 85C22.6883 85.1333 23.1883 85.3667 23.615 85.7C24.0417 86.02 24.3683 86.4533 24.595 87C24.835 87.5333 24.955 88.2 24.955 89V96H22.015ZM18.735 96.2C17.5883 96.2 16.7017 95.9267 16.075 95.38C15.4617 94.8333 15.155 94.0667 15.155 93.08C15.155 92.0133 15.535 91.16 16.295 90.52C17.0683 89.88 18.2817 89.4933 19.935 89.36L22.495 89.16V91.32L20.275 91.54C19.475 91.62 18.915 91.78 18.595 92.02C18.2883 92.26 18.135 92.58 18.135 92.98C18.135 93.38 18.2617 93.68 18.515 93.88C18.7817 94.08 19.1217 94.18 19.535 94.18C19.695 94.18 19.855 94.1667 20.015 94.14C20.175 94.1 20.3217 94.06 20.455 94.02L20.715 95.9C20.4617 95.9933 20.1617 96.0667 19.815 96.12C19.4683 96.1733 19.1083 96.2 18.735 96.2ZM30.6477 96V88.76C30.6477 88.2 30.5143 87.7933 30.2477 87.54C29.9943 87.2867 29.5743 87.16 28.9877 87.16C28.5477 87.16 28.141 87.22 27.7677 87.34C27.4077 87.46 27.0677 87.6067 26.7477 87.78V85.38C27.041 85.2467 27.4543 85.1133 27.9877 84.98C28.521 84.8467 29.1477 84.78 29.8677 84.78C30.601 84.78 31.2477 84.8867 31.8077 85.1C32.381 85.3133 32.8277 85.6733 33.1477 86.18C33.481 86.6733 33.6477 87.3533 33.6477 88.22V96H30.6477ZM36.3391 96V92.66C36.3391 91.82 36.5057 91.1733 36.8391 90.72C37.1724 90.2667 37.6457 89.9467 38.2591 89.76L38.2791 89.68L36.1391 88.9V88.38C36.1391 87.7267 36.3324 87.1267 36.7191 86.58C37.1057 86.0333 37.6724 85.6 38.4191 85.28C39.1791 84.9467 40.0991 84.78 41.1791 84.78C42.1924 84.78 43.0657 84.94 43.7991 85.26C44.5324 85.5667 45.0991 86.0333 45.4991 86.66C45.9124 87.2733 46.1191 88.0533 46.1191 89V96H43.1191V89.18C43.1191 88.5133 42.9391 88.0133 42.5791 87.68C42.2324 87.3467 41.7391 87.18 41.0991 87.18C40.4857 87.18 40.0257 87.3133 39.7191 87.58C39.4124 87.8333 39.2457 88.1467 39.2191 88.52L40.9991 89.34L40.7791 90.64C40.2991 90.6667 39.9391 90.84 39.6991 91.16C39.4591 91.48 39.3391 91.9133 39.3391 92.46V96H36.3391ZM49.0995 96V85.04H52.0595V89.14H52.1395L55.5395 85.04H58.8395V85.14L52.0595 92.66V96H49.0995ZM55.7995 96V92.38C55.7995 91.6733 55.5929 91.1667 55.1795 90.86C54.7795 90.54 54.1929 90.38 53.4195 90.38L55.1795 88.3C55.9795 88.3 56.6462 88.46 57.1795 88.78C57.7129 89.1 58.1129 89.5333 58.3795 90.08C58.6595 90.6133 58.7995 91.2267 58.7995 91.92V96H55.7995ZM67.6009 96V88.88C67.6009 88.24 67.4276 87.78 67.0809 87.5C66.7343 87.22 66.2009 87.08 65.4809 87.08C64.7876 87.08 64.1076 87.1867 63.4409 87.4C62.7876 87.6 62.2209 87.84 61.7409 88.12V85.64C62.1276 85.4533 62.6743 85.2667 63.3809 85.08C64.0876 84.88 64.9076 84.78 65.8409 84.78C66.5209 84.78 67.1409 84.8533 67.7009 85C68.2743 85.1333 68.7743 85.3667 69.2009 85.7C69.6276 86.02 69.9543 86.4533 70.1809 87C70.4209 87.5333 70.5409 88.2 70.5409 89V96H67.6009ZM64.3209 96.2C63.1743 96.2 62.2876 95.9267 61.6609 95.38C61.0476 94.8333 60.7409 94.0667 60.7409 93.08C60.7409 92.0133 61.1209 91.16 61.8809 90.52C62.6543 89.88 63.8676 89.4933 65.5209 89.36L68.0809 89.16V91.32L65.8609 91.54C65.0609 91.62 64.5009 91.78 64.1809 92.02C63.8743 92.26 63.7209 92.58 63.7209 92.98C63.7209 93.38 63.8476 93.68 64.1009 93.88C64.3676 94.08 64.7076 94.18 65.1209 94.18C65.2809 94.18 65.4409 94.1667 65.6009 94.14C65.7609 94.1 65.9076 94.06 66.0409 94.02L66.3009 95.9C66.0476 95.9933 65.7476 96.0667 65.4009 96.12C65.0543 96.1733 64.6943 96.2 64.3209 96.2ZM76.2336 96V88.76C76.2336 88.2 76.1003 87.7933 75.8336 87.54C75.5803 87.2867 75.1603 87.16 74.5736 87.16C74.1336 87.16 73.7269 87.22 73.3536 87.34C72.9936 87.46 72.6536 87.6067 72.3336 87.78V85.38C72.6269 85.2467 73.0403 85.1133 73.5736 84.98C74.1069 84.8467 74.7336 84.78 75.4536 84.78C76.1869 84.78 76.8336 84.8867 77.3936 85.1C77.9669 85.3133 78.4136 85.6733 78.7336 86.18C79.0669 86.6733 79.2336 87.3533 79.2336 88.22V96H76.2336ZM86.665 96.26C85.465 96.26 84.505 96.12 83.785 95.84C83.065 95.5467 82.5383 95.14 82.205 94.62C81.885 94.1 81.725 93.5 81.725 92.82C81.725 92.2333 81.8117 91.76 81.985 91.4C82.1717 91.04 82.405 90.7667 82.685 90.58C82.9783 90.38 83.2717 90.2467 83.565 90.18V90.06C83.2583 89.9533 82.965 89.8067 82.685 89.62C82.405 89.4333 82.1717 89.18 81.985 88.86C81.8117 88.54 81.725 88.14 81.725 87.66C81.725 87.1667 81.8383 86.7067 82.065 86.28C82.305 85.8533 82.685 85.5133 83.205 85.26C83.725 84.9933 84.4117 84.86 85.265 84.86C85.6783 84.86 86.0783 84.8933 86.465 84.96C86.8517 85.0133 87.1517 85.0933 87.365 85.2L86.905 87.22C86.7983 87.1933 86.6517 87.1667 86.465 87.14C86.2917 87.1 86.1117 87.08 85.925 87.08C85.5117 87.08 85.205 87.18 85.005 87.38C84.805 87.5667 84.705 87.8133 84.705 88.12C84.705 88.44 84.7917 88.6867 84.965 88.86C85.1383 89.0333 85.3583 89.1533 85.625 89.22C85.905 89.2867 86.1917 89.32 86.485 89.32H86.905V91.18H86.485C85.9117 91.18 85.4783 91.28 85.185 91.48C84.905 91.68 84.765 92.0067 84.765 92.46C84.765 92.7 84.8183 92.94 84.925 93.18C85.045 93.4067 85.245 93.6 85.525 93.76C85.805 93.9067 86.205 93.98 86.725 93.98C87.2183 93.98 87.605 93.9067 87.885 93.76C88.165 93.6133 88.365 93.42 88.485 93.18C88.605 92.9267 88.665 92.6467 88.665 92.34V85.04H91.665V92.24C91.665 93.6133 91.2583 94.6267 90.445 95.28C89.645 95.9333 88.385 96.26 86.665 96.26ZM15.417 116V105.04H17.617L18.017 106.76H18.177C18.4036 106.213 18.797 105.76 19.357 105.4C19.917 105.027 20.6436 104.84 21.537 104.84C22.3903 104.84 23.097 104.993 23.657 105.3C24.217 105.593 24.637 106.047 24.917 106.66C25.2103 107.26 25.357 108.02 25.357 108.94V116H22.357V109.54C22.357 108.793 22.2036 108.26 21.897 107.94C21.6036 107.607 21.1703 107.44 20.597 107.44C20.1303 107.44 19.7303 107.567 19.397 107.82C19.077 108.073 18.8303 108.447 18.657 108.94C18.497 109.42 18.417 110.027 18.417 110.76V116H15.417ZM31.048 116V108.76C31.048 108.2 30.9147 107.793 30.648 107.54C30.3947 107.287 29.9747 107.16 29.388 107.16C28.948 107.16 28.5414 107.22 28.168 107.34C27.808 107.46 27.468 107.607 27.148 107.78V105.38C27.4414 105.247 27.8547 105.113 28.388 104.98C28.9214 104.847 29.548 104.78 30.268 104.78C31.0014 104.78 31.648 104.887 32.208 105.1C32.7814 105.313 33.228 105.673 33.548 106.18C33.8814 106.673 34.048 107.353 34.048 108.22V116H31.048ZM38.7195 116L35.5395 105.04H38.5595L40.9795 113.58H41.0995C41.3128 113.58 41.5128 113.52 41.6995 113.4C41.8861 113.28 42.0461 113.12 42.1795 112.92C42.4461 112.547 42.6461 112.107 42.7795 111.6C42.9128 111.08 42.9795 110.567 42.9795 110.06C42.9795 109.167 42.8061 108.48 42.4595 108C42.1261 107.52 41.6595 107.28 41.0595 107.28C40.9395 107.28 40.8261 107.287 40.7195 107.3C40.6261 107.313 40.5395 107.34 40.4595 107.38L39.8995 105.08C40.2061 104.987 40.4928 104.933 40.7595 104.92C41.0395 104.893 41.2661 104.88 41.4395 104.88C42.1461 104.88 42.7595 104.973 43.2795 105.16C43.7995 105.347 44.2461 105.627 44.6195 106C45.0861 106.453 45.4328 107.02 45.6595 107.7C45.8995 108.38 46.0195 109.147 46.0195 110C46.0195 111.08 45.8461 112.027 45.4995 112.84C45.1661 113.64 44.7595 114.273 44.2795 114.74C43.8795 115.127 43.3728 115.433 42.7595 115.66C42.1595 115.887 41.3328 116 40.2795 116H38.7195ZM51.3452 116.2C50.7452 116.2 50.2386 116.107 49.8252 115.92C49.4119 115.733 49.0986 115.453 48.8852 115.08C48.6719 114.693 48.5652 114.213 48.5652 113.64V105.04H51.5652V113.28C51.5652 113.533 51.6186 113.72 51.7252 113.84C51.8452 113.96 52.0252 114.02 52.2652 114.02C52.3719 114.02 52.4852 114.007 52.6052 113.98C52.7252 113.953 52.8386 113.92 52.9452 113.88L53.2252 115.8C52.9719 115.933 52.6852 116.033 52.3652 116.1C52.0452 116.167 51.7052 116.2 51.3452 116.2ZM55.9282 116L54.0282 105.04H56.9482L57.4882 108.9C57.5282 109.22 57.5749 109.66 57.6282 110.22C57.6949 110.767 57.7549 111.407 57.8082 112.14H57.8682C57.9882 111.647 58.0949 111.2 58.1882 110.8C58.2815 110.387 58.3682 110.02 58.4482 109.7C58.5415 109.367 58.6215 109.08 58.6882 108.84L59.7682 105.04H61.5882L62.6682 108.84C62.7349 109.08 62.8082 109.367 62.8882 109.7C62.9815 110.02 63.0749 110.387 63.1682 110.8C63.2749 111.2 63.3815 111.647 63.4882 112.14H63.5482C63.6149 111.407 63.6682 110.767 63.7082 110.22C63.7615 109.66 63.8149 109.22 63.8682 108.9L64.4282 105.04H67.3282L65.4482 116H62.5082L61.2482 111.54C61.1149 111.02 61.0082 110.547 60.9282 110.12C60.8615 109.68 60.7949 109.233 60.7282 108.78H60.6482C60.5949 109.087 60.5415 109.38 60.4882 109.66C60.4482 109.94 60.3949 110.233 60.3282 110.54C60.2615 110.833 60.1749 111.167 60.0682 111.54L58.7882 116H55.9282ZM69.3395 116V109.5C69.3395 107.967 69.7461 106.8 70.5595 106C71.3728 105.187 72.6661 104.78 74.4395 104.78C75.1995 104.78 75.8728 104.887 76.4595 105.1C77.0461 105.3 77.4928 105.66 77.7995 106.18C78.4261 106.42 78.8595 106.833 79.0995 107.42C79.3528 108.007 79.4795 108.707 79.4795 109.52V116H76.4995V109.46C76.4995 108.753 76.3328 108.2 75.9995 107.8C75.6795 107.387 75.1528 107.18 74.4195 107.18C73.6861 107.18 73.1528 107.387 72.8195 107.8C72.4861 108.2 72.3195 108.753 72.3195 109.46V111.2L72.3795 111.22C72.6461 110.7 72.9528 110.36 73.2995 110.2C73.6461 110.027 74.1261 109.94 74.7395 109.94H75.2195V112.18H74.7395C74.0861 112.18 73.5795 112.293 73.2195 112.52C72.8728 112.747 72.6328 113.047 72.4995 113.42C72.3795 113.78 72.3195 114.187 72.3195 114.64V116H69.3395ZM77.8995 107.22L76.2595 105.84C76.7261 105.68 77.0928 105.48 77.3595 105.24C77.6261 104.987 77.7661 104.68 77.7795 104.32H80.3995C80.3995 104.733 80.3128 105.133 80.1395 105.52C79.9795 105.893 79.7128 106.227 79.3395 106.52C78.9795 106.813 78.4995 107.047 77.8995 107.22Z" fill="#0A6451"/>
<path d="M67.878 60.0713C67.7759 59.7642 67.8858 58.8069 66.9767 58.4392C64.0983 57.7064 61.6634 55.3686 60.6121 57.0187C57.8241 55.526 56.5517 54.0604 56.5517 52.3677V47.776C57.272 47.1322 57.9638 46.4329 58.6013 45.655C58.4112 47.1025 58.1655 48.5759 57.8707 50.066C57.6871 50.9885 58.5237 51.7858 59.4341 51.573C68.2181 49.5126 73.3621 42.7173 73.3621 41.2852C73.3621 30.7033 68.2685 0 52.6724 0C48.175 0 45.8384 1.2463 44.7069 2.19973C43.8897 1.76494 42.6315 1.29016 41.0345 1.29016C25.869 1.29016 23.5246 29.137 24.2254 43.9262C24.2461 44.348 24.4711 44.7338 24.8306 44.9583C25.0013 45.0654 29.05 47.5683 33.2241 47.7347C34.953 47.776 35.019 45.2241 33.3276 45.157C30.6767 45.0512 27.9496 43.7339 26.7845 43.103C26.6655 38.7358 26.4198 15.2394 34.5069 6.78625C37.8638 3.27701 42.2862 3.3441 44.0526 4.83295C44.5983 5.31805 45.5552 5.24064 46.0194 4.53879C46.0323 4.51944 47.372 2.58032 52.6724 2.58032C65.4366 2.58032 70.6698 29.3473 70.7746 40.9356C70.0853 42.0374 67.0388 46.393 60.7853 48.5062C65.6422 19.8001 52.5534 6.88947 43.2677 12.8397C36.9806 12.1082 34.9466 16.9631 33.4349 20.5316C32.6345 22.4192 31.8793 24.2022 30.8384 24.4808C27.0534 25.5143 26.8789 35.0086 32.1366 36.8986C33.1466 41.2878 35.4741 45.1312 38.4483 47.7928V52.3677C38.4483 54.0604 37.1759 55.5247 34.3879 57.0174C34.0375 56.4678 33.3741 56.2885 32.8181 56.513L28.022 58.4405C27.0961 58.8121 27.2216 59.7668 27.1207 60.0725C18.4103 63.4076 10 69.3527 10 78.6999C10 80.4068 12.5862 80.4081 12.5862 78.6999C12.5862 71.2324 19.5793 65.8434 26.619 63.0399L25.5353 69.4546C25.3323 70.6661 26.6616 71.0067 27.7853 72.0104L25.8909 73.9237C25.4591 74.3585 25.3944 75.0371 25.7345 75.5455L28.3207 79.4159C29.2621 80.8261 31.4306 79.4172 30.4724 77.9852L28.4707 74.9894L29.8724 73.5728L31.2069 74.5714C32.575 75.5971 34.128 73.5302 32.7573 72.5071L28.2147 69.1075L29.6578 60.5628L32.2375 59.5268C33.2526 66.7285 34.8534 73.0077 37.2405 79.1644C37.8573 80.7577 40.2703 79.8275 39.6522 78.2342C38.1845 74.4475 37.0297 70.6016 36.1246 66.513C43.6155 69.0005 51.3793 68.9992 58.8728 66.513C57.9677 70.6016 56.8116 74.4475 55.3453 78.2354C54.7272 79.8288 57.1401 80.759 57.7569 79.1657C60.144 73.009 61.7448 66.7285 62.7599 59.5281L65.3371 60.5641L66.7815 69.1088L62.2414 72.5071C61.6698 72.9342 61.5534 73.7431 61.9828 74.3134C62.4108 74.8823 63.2216 74.9984 63.7918 74.5714L65.1263 73.5728L66.528 74.9894L64.5263 77.9852C63.5681 79.4185 65.7379 80.8261 66.678 79.4159L69.2642 75.5455C69.6043 75.0358 69.5397 74.3585 69.1078 73.9237L67.2134 72.0104L68.9655 70.7009C70.0608 69.8842 69.153 68.896 68.381 63.0399C75.4647 65.8641 82.4138 71.2544 82.4138 78.6999C82.4138 80.4068 85 80.4081 85 78.6999C85 69.3669 76.6065 63.4115 67.878 60.0713ZM34.5056 35.6007C34.4022 35.0537 33.9328 34.6318 33.3793 34.5583C30.0897 34.1222 30.272 27.3114 31.5147 26.9721C33.7698 26.3696 34.7642 24.0215 35.8168 21.538C37.5534 17.4404 39.0211 14.753 43.4125 15.4652C43.5418 15.4845 59.1379 6.42114 59.1379 37.8147C59.1379 38.5307 59.1276 39.2674 59.0875 40.0079C56.6539 45.3286 51.9172 49.0262 47.5 49.0262C42.4763 49.0262 36.0793 43.8926 34.5056 35.6007ZM35.522 63.5586C35.2853 62.2929 35.0733 60.9963 34.8806 59.6713C37.9129 58.1773 41.0345 56.0008 41.0345 52.3677V49.7074C45.2655 52.2258 49.6517 52.2554 53.9655 49.6829V52.3677C53.9655 56.0021 57.0871 58.1786 60.1207 59.6739C59.928 60.9976 59.7147 62.2942 59.4793 63.5599C51.6806 66.5169 43.3091 66.5156 35.522 63.5586Z" fill="#0A6451"/>
</svg>
