<svg width="95" height="110" viewBox="0 0 95 110" fill="none" xmlns="http://www.w3.org/2000/svg">
<path d="M37.0073 101.26C35.4873 101.26 34.3339 100.927 33.5473 100.26C32.7739 99.58 32.3873 98.6067 32.3873 97.34V96.56C32.3873 96.0133 32.4473 95.56 32.5673 95.2C32.7006 94.84 32.8739 94.5133 33.0873 94.22C33.3006 93.9267 33.4739 93.6667 33.6073 93.44C33.7539 93.2 33.8273 92.9533 33.8273 92.7C33.8273 92.46 33.7673 92.2933 33.6473 92.2C33.5406 92.0933 33.3939 92.04 33.2073 92.04C33.0739 92.04 32.9339 92.06 32.7873 92.1C32.6539 92.14 32.5006 92.2 32.3273 92.28L31.8473 90.4C32.2206 90.2 32.6206 90.0667 33.0473 90C33.4873 89.92 33.8739 89.88 34.2073 89.88C34.7939 89.88 35.2606 89.9733 35.6073 90.16C35.9673 90.3467 36.2273 90.6133 36.3873 90.96C36.5473 91.3067 36.6273 91.72 36.6273 92.2C36.6273 92.6133 36.5673 92.98 36.4473 93.3C36.3273 93.6067 36.1739 93.9267 35.9873 94.26C35.8139 94.5667 35.6606 94.8533 35.5273 95.12C35.4073 95.3867 35.3473 95.7733 35.3473 96.28V97.04C35.3473 97.48 35.4073 97.84 35.5273 98.12C35.6606 98.4 35.8539 98.6067 36.1073 98.74C36.3606 98.86 36.6606 98.92 37.0073 98.92C37.5806 98.92 37.9873 98.7667 38.2273 98.46C38.4806 98.14 38.6073 97.7133 38.6073 97.18V95.24C38.6073 94.84 38.5139 94.5267 38.3273 94.3C38.1539 94.06 37.8539 93.94 37.4273 93.94H37.3273V92.36H37.4473C37.8606 92.36 38.1673 92.2467 38.3673 92.02C38.5673 91.7933 38.6939 91.5067 38.7473 91.16C38.8139 90.8 38.8473 90.4267 38.8473 90.04H41.8273C41.8273 90.8533 41.7206 91.5267 41.5073 92.06C41.2939 92.5933 40.9206 92.9533 40.3873 93.14V93.22C40.7073 93.3133 40.9539 93.46 41.1273 93.66C41.3006 93.8467 41.4206 94.0733 41.4873 94.34C41.5539 94.6067 41.5873 94.9 41.5873 95.22V97.26C41.5873 98.58 41.2006 99.58 40.4273 100.26C39.6539 100.927 38.5139 101.26 37.0073 101.26ZM47.2199 101V93.76C47.2199 93.2 47.0866 92.7933 46.8199 92.54C46.5666 92.2867 46.1466 92.16 45.5599 92.16C45.1199 92.16 44.7133 92.22 44.3399 92.34C43.9799 92.46 43.6399 92.6067 43.3199 92.78V90.38C43.6133 90.2467 44.0266 90.1133 44.5599 89.98C45.0933 89.8467 45.7199 89.78 46.4399 89.78C47.1733 89.78 47.8199 89.8867 48.3799 90.1C48.9533 90.3133 49.3999 90.6733 49.7199 91.18C50.0533 91.6733 50.2199 92.3533 50.2199 93.22V101H47.2199ZM57.6513 101.26C56.4513 101.26 55.4913 101.12 54.7713 100.84C54.0513 100.547 53.5247 100.14 53.1913 99.62C52.8713 99.1 52.7113 98.5 52.7113 97.82C52.7113 97.2333 52.798 96.76 52.9713 96.4C53.158 96.04 53.3913 95.7667 53.6713 95.58C53.9647 95.38 54.258 95.2467 54.5513 95.18V95.06C54.2447 94.9533 53.9513 94.8067 53.6713 94.62C53.3913 94.4333 53.158 94.18 52.9713 93.86C52.798 93.54 52.7113 93.14 52.7113 92.66C52.7113 92.1667 52.8247 91.7067 53.0513 91.28C53.2913 90.8533 53.6713 90.5133 54.1913 90.26C54.7113 89.9933 55.398 89.86 56.2513 89.86C56.6647 89.86 57.0647 89.8933 57.4513 89.96C57.838 90.0133 58.138 90.0933 58.3513 90.2L57.8913 92.22C57.7847 92.1933 57.638 92.1667 57.4513 92.14C57.278 92.1 57.098 92.08 56.9113 92.08C56.498 92.08 56.1913 92.18 55.9913 92.38C55.7913 92.5667 55.6913 92.8133 55.6913 93.12C55.6913 93.44 55.778 93.6867 55.9513 93.86C56.1247 94.0333 56.3447 94.1533 56.6113 94.22C56.8913 94.2867 57.178 94.32 57.4713 94.32H57.8913V96.18H57.4713C56.898 96.18 56.4647 96.28 56.1713 96.48C55.8913 96.68 55.7513 97.0067 55.7513 97.46C55.7513 97.7 55.8047 97.94 55.9113 98.18C56.0313 98.4067 56.2313 98.6 56.5113 98.76C56.7913 98.9067 57.1913 98.98 57.7113 98.98C58.2047 98.98 58.5913 98.9067 58.8713 98.76C59.1513 98.6133 59.3513 98.42 59.4713 98.18C59.5913 97.9267 59.6513 97.6467 59.6513 97.34V90.04H62.6513V97.24C62.6513 98.6133 62.2447 99.6267 61.4313 100.28C60.6313 100.933 59.3713 101.26 57.6513 101.26Z" fill="#0A6451"/>
<path d="M47.5 48.3871C43.3871 48.3871 41.9355 47.4194 40.6048 46.4516C40.2419 46.2097 40 45.9677 39.6371 45.8468C36.0081 43.6694 33.3468 39.9193 32.1371 34.5968C30.4436 33.9919 28.1452 32.1774 28.1452 27.8226C28.1452 24.4355 29.7178 23.3468 29.8387 23.2258C30.4436 22.8629 31.1694 22.9839 31.5323 23.5887C31.8952 24.1935 31.7742 24.9193 31.1694 25.2823C30.5645 25.6452 30.4436 25.8871 30.4436 27.9435C30.4436 32.0564 32.9839 32.5403 33.2258 32.5403C33.7097 32.6613 34.1936 33.0242 34.3145 33.5081C35.0403 36.8952 36.6129 41.4919 40.7258 43.9113C41.2097 44.1532 41.5726 44.3952 41.9355 44.6371C43.1452 45.4839 44.1129 46.0887 47.379 46.0887C50.7661 46.0887 51.6129 45.4839 52.8226 44.6371C53.1855 44.3952 53.5484 44.1532 54.0323 43.9113C58.1452 41.4919 59.8387 37.0161 60.4436 33.5081C60.5645 33.0242 61.0484 32.5403 61.5323 32.5403C61.7742 32.5403 64.3145 32.0564 64.3145 27.9435C64.3145 25.8871 63.5887 25.2823 63.5887 25.2823C62.9839 24.9193 62.8629 24.1935 63.3468 23.5887C63.7097 22.9839 64.5565 22.8629 65.0403 23.3468C65.1613 23.4677 66.7339 24.6774 66.7339 27.9435C66.7339 32.2984 64.4355 34.1129 62.7419 34.7177C61.5323 39.9193 58.9919 43.7903 55.2419 45.9677C54.879 46.2097 54.5161 46.4516 54.2742 46.5726C53.0645 47.4193 51.6129 48.3871 47.5 48.3871Z" fill="#0A6451"/>
<path d="M30.5645 25.4033C30.0807 25.4033 29.7178 25.1613 29.4758 24.6775C29.2339 24.0726 29.4758 23.3468 30.0807 23.1049C33.2258 21.6533 35.6452 18.5081 37.9436 12.8226C38.0645 12.4597 38.4274 12.2178 38.7903 12.0968C39.1532 11.9758 39.6371 12.0968 39.8791 12.4597C43.3871 15.7258 48.3468 15 51.6129 14.5162C52.5807 14.3952 53.4274 14.2742 54.0323 14.2742C58.871 14.2742 60.8065 17.7823 62.1371 20.3226C62.9839 22.0162 63.5887 23.1049 64.4355 23.1049C65.1613 23.1049 65.6452 23.5888 65.6452 24.3146C65.6452 25.0404 65.1613 25.5242 64.4355 25.5242C62.1371 25.5242 61.0484 23.4678 59.9597 21.5323C58.6291 19.1129 57.4194 16.8146 54.0323 16.8146C53.5484 16.8146 52.8226 16.9355 51.9758 17.0565C48.8307 17.5404 43.6291 18.2662 39.5161 15.4839C37.0968 20.8065 34.4355 23.9517 31.0484 25.5242C30.9274 25.4033 30.6855 25.4033 30.5645 25.4033Z" fill="#0A6451"/>
<path d="M83.7903 75C83.0645 75 82.5806 74.5161 82.5806 73.7903C82.5806 67.1371 82.5806 61.8145 73.1452 59.5161C65.2823 57.7016 55.9677 54.0726 55.9677 47.9032V42.9436C55.9677 42.2178 56.4516 41.7339 57.1774 41.7339C57.9032 41.7339 58.3871 42.2178 58.3871 42.9436V47.9032C58.3871 51.4113 63.9516 54.7984 73.629 57.2178C85 59.879 85 67.2581 85 73.6694C85 74.3952 84.5161 75 83.7903 75Z" fill="#0A6451"/>
<path d="M11.2097 73.7903H10C10 67.2581 10 59.879 21.371 57.2178C31.0484 54.9194 36.6129 51.5323 36.6129 47.9032V42.9436C36.6129 42.2178 37.0968 41.7339 37.8226 41.7339C38.5484 41.7339 39.0323 42.2178 39.0323 42.9436V47.9032C39.0323 54.0726 29.7177 57.7016 21.8548 59.5161C12.4194 61.8145 12.4194 67.1371 12.4194 73.6694L11.2097 73.7903Z" fill="#0A6451"/>
<path d="M47.5 65.3226C40.6048 65.3226 33.9516 62.1774 29.3548 56.7339C28.871 56.25 28.9919 55.5242 29.4758 55.0403C29.9597 54.5565 30.6855 54.6774 31.1694 55.1613C35.4032 60.121 41.3307 62.9032 47.5 62.9032C53.6694 62.9032 59.5968 60.121 63.8307 55.1613C64.3145 54.6774 65.0403 54.5565 65.5242 55.0403C66.0081 55.5242 66.129 56.25 65.6452 56.7339C61.0484 62.1774 54.3952 65.3226 47.5 65.3226Z" fill="#0A6451"/>
<path d="M30.2016 25.7661C29.7178 25.7661 29.2339 25.5242 29.1129 25.0403C28.1452 22.5 28.1452 21.6532 28.1452 15.7258C28.1452 10.6452 31.2903 6.53226 34.5565 5.08064C37.0968 1.57258 41.0887 0 47.5 0C50.6452 0 53.6694 0.604839 56.2097 1.69355C60.4436 2.90323 64.1936 2.41935 64.1936 2.41935C64.7984 2.29839 65.4032 2.78226 65.5242 3.3871C65.5242 3.50806 66.129 6.16935 64.5565 8.46774C66.129 11.0081 66.7339 14.6371 66.7339 17.1774C66.7339 19.4758 66.7339 22.5 65.7661 25.0403C65.5242 25.6452 64.7984 26.0081 64.1936 25.7661C63.5887 25.5242 63.2258 24.7984 63.4678 24.1935C64.3145 22.1371 64.3145 19.4758 64.3145 17.1774C64.3145 14.7581 63.5887 11.129 62.1371 9.19355C61.7742 8.70968 61.7742 8.10484 62.1371 7.62097C62.8629 6.65323 63.1049 5.68548 63.1049 4.83871C61.5323 4.83871 58.629 4.83871 55.4839 3.99194C55.3629 3.99194 55.3629 3.99193 55.2419 3.87097C53.0645 2.90323 50.4032 2.41935 47.5 2.41935C40.3629 2.41935 37.9436 4.47581 36.371 6.77419C36.25 7.01613 36.0081 7.1371 35.7661 7.25806C33.2258 8.22581 30.5645 11.4919 30.5645 15.7258C30.5645 21.5323 30.5645 22.0161 31.4113 24.0726C31.6532 24.6774 31.2903 25.4032 30.6855 25.6452C30.5645 25.7661 30.3226 25.7661 30.2016 25.7661Z" fill="#0A6451"/>
</svg>
