<svg width="68" height="68" viewBox="0 0 68 68" fill="none" xmlns="http://www.w3.org/2000/svg">
<g clip-path="url(#clip0_113_2679)">
<path d="M34 68C52.7777 68 68 52.7777 68 34C68 15.2223 52.7777 0 34 0C15.2223 0 0 15.2223 0 34C0 52.7777 15.2223 68 34 68Z" fill="#FFD400"/>
<path d="M48.0001 21.1947L44.542 19.0356L41.5565 14H21.0395C19.9131 14 19 14.9131 19 16.0395V52.5052C19 53.6315 19.9131 54.5446 21.0395 54.5446H47.9605C47.9739 54.5446 47.9868 54.5429 48.0001 54.5426V21.1947Z" fill="#EAF6FF"/>
<path d="M49.9996 22.4435L46.9325 20.5284V52.5054C46.9325 53.6317 46.0194 54.5448 44.8931 54.5448H47.9602C49.0865 54.5448 49.9997 53.6317 49.9997 52.5054V22.4435H49.9996Z" fill="#D8ECFE"/>
<path d="M43.5961 22.4434H50.0001L41.5566 14V20.404C41.5566 21.5303 42.4698 22.4434 43.5961 22.4434Z" fill="#B3DAFE"/>
<path d="M45.1052 27.0652H23.8947C23.4872 27.0652 23.157 26.7348 23.157 26.3274C23.157 25.92 23.4872 25.5897 23.8947 25.5897H45.1052C45.5127 25.5897 45.843 25.92 45.843 26.3274C45.843 26.7348 45.5127 27.0652 45.1052 27.0652Z" fill="#82AEE3"/>
<path d="M45.1052 31.9461H23.8947C23.4872 31.9461 23.157 31.6158 23.157 31.2084C23.157 30.801 23.4872 30.4706 23.8947 30.4706H45.1052C45.5127 30.4706 45.843 30.801 45.843 31.2084C45.843 31.6158 45.5127 31.9461 45.1052 31.9461Z" fill="#82AEE3"/>
</g>
<defs>
<clipPath id="clip0_113_2679">
<rect width="68" height="68" fill="white"/>
</clipPath>
</defs>
</svg>
